<?xml version="1.0" encoding="UTF-8"?>
<svg id="Layer_2" xmlns="http://www.w3.org/2000/svg" viewBox="0 0 173.12 50.26">
    <g id="Layer_1-2" fill="currentColor">
        <path d="m11.3,22.9c-1.54-1.78-2.74-3.34-3.6-4.68-.86-1.34-1.47-2.6-1.82-3.76-.35-1.16-.52-2.35-.52-3.55,0-2.16.52-4.06,1.55-5.69,1.03-1.63,2.53-2.91,4.5-3.83,1.97-.92,4.37-1.39,7.2-1.39,2.66,0,4.87.42,6.61,1.26,1.74.84,3.04,1.97,3.91,3.38.86,1.42,1.3,2.99,1.3,4.72,0,1.2-.2,2.36-.59,3.47-.4,1.12-1.06,2.22-2,3.31-.94,1.09-2.2,2.18-3.78,3.26-1.2.84-2.63,1.68-4.28,2.52l12.02,13.54c.58-1.13,1.12-2.36,1.62-3.71.91-2.35,1.74-5.15,2.48-8.39l-5.33-1.66v-1.84h16.34v1.84l-5.58,1.66c-1.44,3.91-2.87,7.28-4.28,10.12-.89,1.75-1.8,3.36-2.74,4.82l6.48,7.27,6.73,2.05v1.84h-12.92l-4.82-5.51c-1.13,1.13-2.27,2.09-3.42,2.88-1.78,1.2-3.63,2.07-5.56,2.61-1.93.54-3.98.81-6.14.81-3.29,0-6.02-.55-8.19-1.66-2.17-1.1-3.79-2.62-4.86-4.54-1.07-1.92-1.6-4.12-1.6-6.59,0-2.09.43-4.04,1.3-5.87.86-1.82,2.27-3.54,4.21-5.15,1.51-1.25,3.44-2.44,5.8-3.56Zm1.98,2.23c-1.22.79-2.24,1.61-3.06,2.45-1.06,1.13-1.82,2.35-2.3,3.65-.48,1.31-.72,2.74-.72,4.3,0,2.11.4,3.89,1.19,5.35.79,1.45,1.95,2.56,3.47,3.31,1.52.76,3.4,1.13,5.63,1.13s4.22-.47,6.19-1.4c1.3-.6,2.54-1.49,3.74-2.66l-14.15-16.13Zm4.46-5.47c2.26-1.42,3.88-2.86,4.86-4.32,1.13-1.68,1.69-3.53,1.69-5.54s-.49-3.52-1.48-4.66c-.98-1.14-2.5-1.71-4.54-1.71-1.9,0-3.43.5-4.59,1.49-1.16,1-1.75,2.45-1.75,4.37,0,.98.14,1.91.41,2.77.28.86.76,1.79,1.44,2.79s1.63,2.18,2.83,3.55l1.12,1.26Z" style="stroke-width:0px;"/>
        <path d="m73.55,17.06c1.32,0,2.29.34,2.92,1.03s.94,1.57.94,2.65c0,1.32-.38,2.35-1.13,3.1-.76.74-1.69,1.12-2.79,1.12-.77,0-1.49-.09-2.16-.27-.67-.18-1.35-.35-2.03-.52-.68-.17-1.42-.25-2.21-.25-.55,0-1.14.07-1.76.2-.62.13-1.24.34-1.84.63-.17.07-.34.14-.5.22v20.99l5.58,1.8v1.73h-17.93v-1.73l5.26-1.73v-21.06c-.34-.36-.76-.7-1.28-1.03-.52-.32-1.11-.65-1.78-.99-.67-.34-1.43-.67-2.27-1.01v-1.19l10.55-3.92h1.01l.72,5.87c.79-.65,1.52-1.22,2.2-1.73,1.22-.91,2.35-1.65,3.37-2.21,1.02-.56,1.96-.98,2.81-1.26.85-.28,1.64-.41,2.36-.41Z" style="stroke-width:0px;"/>
        <path d="m94.07,16.81c2.71,0,5.01.58,6.89,1.73,1.88,1.15,3.36,2.83,4.43,5.04,1.07,2.21,1.71,4.9,1.93,8.06h-21.74v.25c0,2.76.5,5.09,1.49,7,1,1.91,2.42,3.37,4.27,4.37,1.85,1.01,4.03,1.51,6.55,1.51,1.06,0,2.07-.11,3.04-.34.97-.23,1.93-.56,2.86-1.01.94-.44,1.85-.98,2.74-1.6l.83,1.69c-1.32,1.44-2.68,2.66-4.09,3.67-1.4,1.01-2.86,1.77-4.37,2.29-1.51.52-3.1.77-4.75.77-3.07,0-5.77-.69-8.1-2.07-2.33-1.38-4.15-3.29-5.45-5.74-1.31-2.45-1.96-5.26-1.96-8.42s.62-6.13,1.85-8.73c1.24-2.6,3.01-4.67,5.31-6.19,2.3-1.52,5.06-2.29,8.28-2.29Zm-8.28,11.77l14.04-.58c-.14-1.34-.41-2.52-.79-3.53-.5-1.37-1.21-2.41-2.12-3.11-.91-.71-2.05-1.06-3.42-1.06-1.58,0-2.97.41-4.16,1.24s-2.11,2.09-2.75,3.8c-.36.94-.62,2.02-.79,3.24Z" style="stroke-width:0px;"/>
        <path d="m154.47,20.84l-4.54-1.33v-1.91h12.13v1.91l-3.78,1.33-8.96,29.2h-4.1l-9.58-23.76-9.47,23.76h-4.1l-9.22-28.8-4.57-1.73v-1.91h16.49v1.91l-4.57,1.48,6.16,19.91,9.32-23.87h3.71l9.47,23.76,5.62-19.94Z" style="stroke-width:0px;"/>
        <path d="m168.01,40.03c1.49,0,2.71.47,3.67,1.42.96.95,1.44,2.14,1.44,3.58s-.48,2.6-1.44,3.56c-.96.96-2.18,1.44-3.67,1.44s-2.71-.48-3.67-1.44-1.44-2.15-1.44-3.56.48-2.63,1.44-3.58c.96-.95,2.18-1.42,3.67-1.42Z" style="stroke-width:0px;"/>
    </g>
</svg>
